<?xml version="1.0" encoding="UTF-8"?>
<svg xmlns="http://www.w3.org/2000/svg" xmlns:xlink="http://www.w3.org/1999/xlink" width="67pt" height="64pt" viewBox="0 0 67 64" version="1.1">
<g id="surface1">
<path style=" stroke:none;fill-rule:nonzero;fill:rgb(0.784314%,0.784314%,0.784314%);fill-opacity:1;" d="M 30.839844 12.597656 C 34.207031 12.597656 36.941406 10.253906 36.941406 7.375 C 36.941406 4.496094 34.207031 2.136719 30.839844 2.136719 C 27.480469 2.136719 24.738281 4.480469 24.738281 7.359375 C 24.738281 10.238281 27.480469 12.597656 30.839844 12.597656 Z M 30.839844 12.597656 "/>
<path style=" stroke:none;fill-rule:nonzero;fill:rgb(0.784314%,0.784314%,0.784314%);fill-opacity:1;" d="M 16.601562 52.078125 C 16.660156 52.078125 16.722656 52.078125 16.777344 52.078125 C 22.25 52.078125 27.082031 50.144531 29.699219 46.878906 C 31.496094 44.640625 32.476562 41.597656 32.398438 38.519531 C 32.304688 35.375 31.078125 32.597656 29.046875 30.894531 C 26.839844 29.050781 23.875 28.53125 22.292969 28.386719 C 18.746094 28.066406 15.9375 29.171875 14.597656 29.855469 L 14.570312 29.863281 C 14.425781 29.878906 14.121094 29.839844 14.011719 29.5625 C 13.132812 27.042969 14.914062 23.800781 19.15625 20.171875 C 22.09375 17.652344 25.300781 15.746094 25.820312 15.453125 L 21.429688 10.09375 C 17.417969 12.894531 14.09375 16.171875 11.5625 19.863281 C 10.925781 20.800781 5.410156 29 7.738281 31.050781 C 8.292969 31.546875 9.304688 31.496094 11.316406 31.402344 C 13.105469 31.308594 14.1875 31.027344 15.339844 30.734375 C 16.3125 30.480469 17.308594 30.230469 18.773438 30.09375 C 20.765625 29.90625 22.214844 29.785156 23.769531 30.359375 C 27.226562 31.640625 28.476562 35.402344 28.683594 36.144531 C 29.628906 39.402344 28.632812 43.5625 26.160156 46.761719 C 24.363281 49.078125 22.121094 50.402344 19.980469 50.402344 C 19.964844 50.402344 19.941406 50.402344 19.925781 50.402344 C 17.324219 50.375 14.359375 48.386719 12.882812 45.667969 C 12.230469 44.480469 11.980469 42.5625 11.921875 42.160156 L 3.179688 43.691406 C 3.179688 43.746094 3.1875 43.8125 3.203125 43.863281 C 3.390625 45.308594 3.882812 46.5625 4.695312 47.589844 C 6.78125 50.28125 11.460938 52.050781 16.601562 52.078125 Z M 16.601562 52.078125 "/>
<path style=" stroke:none;fill-rule:nonzero;fill:rgb(0.784314%,0.784314%,0.784314%);fill-opacity:1;" d="M 31.597656 34.144531 L 32.007812 33.503906 C 32.023438 33.496094 32.023438 33.496094 32.039062 33.480469 C 32.941406 32.292969 33.925781 31.652344 34.9375 31.574219 C 35.015625 31.574219 35.082031 31.5625 35.160156 31.5625 C 39.589844 31.5625 44.066406 41.761719 47.089844 50.46875 C 47.328125 50.410156 48.667969 50.199219 56.574219 48.949219 L 39.082031 29.769531 L 39.136719 29.734375 L 39.097656 29.683594 C 48.589844 22.386719 53.703125 18.453125 54.316406 17.972656 L 54.304688 17.957031 C 54.453125 17.839844 54.609375 17.734375 54.757812 17.613281 L 51.078125 13.316406 C 48.507812 15.09375 45.890625 16.878906 43.351562 18.597656 C 38.246094 22.078125 32.96875 25.683594 27.890625 29.347656 C 27.652344 29.519531 27.515625 29.625 27.4375 29.691406 C 28.019531 30 28.597656 30.359375 29.125 30.800781 C 30.191406 31.683594 31.011719 32.828125 31.597656 34.144531 Z M 31.597656 34.144531 "/>
<path style=" stroke:none;fill-rule:nonzero;fill:rgb(0.784314%,0.784314%,0.784314%);fill-opacity:1;" d="M 5.316406 56.308594 L 62.011719 56.078125 L 62.011719 52.894531 L 5.316406 53.640625 Z M 5.316406 56.308594 "/>
<path style=" stroke:none;fill-rule:nonzero;fill:rgb(0.784314%,0.784314%,0.784314%);fill-opacity:1;" d="M 30.839844 12.734375 C 34.28125 12.734375 37.085938 10.316406 37.085938 7.359375 C 37.085938 4.402344 34.28125 2 30.839844 2 C 27.398438 2 24.59375 4.410156 24.59375 7.375 C 24.59375 10.332031 27.398438 12.734375 30.839844 12.734375 Z M 30.839844 2.136719 C 34.207031 2.136719 36.941406 4.480469 36.941406 7.359375 C 36.941406 10.238281 34.207031 12.589844 30.839844 12.589844 C 27.480469 12.589844 24.738281 10.238281 24.738281 7.359375 C 24.738281 4.480469 27.480469 2.136719 30.839844 2.136719 Z M 30.839844 2.136719 "/>
<path style=" stroke:none;fill-rule:nonzero;fill:rgb(0.784314%,0.784314%,0.784314%);fill-opacity:1;" d="M 56.777344 48.972656 L 56.726562 49.015625 L 56.726562 49.078125 L 56.617188 49.078125 C 53.523438 49.574219 47.695312 50.496094 47.140625 50.597656 C 47.140625 50.613281 47.140625 50.640625 47.152344 50.652344 L 47.019531 50.691406 C 44.519531 43.4375 39.625 31.347656 34.949219 31.707031 C 33.976562 31.785156 33.035156 32.410156 32.160156 33.5625 L 31.675781 34.308594 C 32.210938 35.574219 32.515625 37.015625 32.554688 38.53125 C 32.648438 41.640625 31.648438 44.71875 29.832031 46.984375 C 27.183594 50.28125 22.320312 52.238281 16.789062 52.238281 L 16.617188 52.238281 C 11.433594 52.199219 6.699219 50.410156 4.574219 47.683594 C 3.75 46.625 3.246094 45.347656 3.058594 43.894531 C 3.042969 43.8125 3.042969 43.734375 3.03125 43.652344 L 3.03125 43.589844 L 12.066406 42 L 12.066406 42.078125 C 12.066406 42.105469 12.3125 44.292969 13.011719 45.613281 C 14.4375 48.238281 17.417969 50.238281 19.925781 50.265625 C 22.039062 50.292969 24.277344 48.984375 26.058594 46.683594 C 28.503906 43.519531 29.484375 39.402344 28.554688 36.199219 C 28.34375 35.46875 27.117188 31.761719 23.714844 30.503906 C 22.1875 29.949219 20.75 30.066406 18.773438 30.253906 C 17.324219 30.386719 16.328125 30.640625 15.367188 30.894531 C 14.265625 31.171875 13.121094 31.46875 11.316406 31.5625 C 9.265625 31.667969 8.230469 31.707031 7.628906 31.1875 C 5.222656 29.050781 10.796875 20.761719 11.445312 19.8125 C 14 16.09375 17.347656 12.785156 21.40625 9.972656 L 21.457031 9.933594 L 26.027344 15.519531 L 25.964844 15.5625 C 25.828125 15.640625 12.082031 23.597656 14.15625 29.546875 C 14.238281 29.761719 14.488281 29.761719 14.554688 29.761719 C 15.925781 29.066406 18.757812 27.957031 22.320312 28.28125 C 23.503906 28.386719 25.472656 28.707031 27.320312 29.640625 C 27.386719 29.574219 27.53125 29.46875 27.8125 29.253906 C 32.886719 25.574219 38.167969 21.972656 43.273438 18.496094 C 45.820312 16.761719 48.453125 14.957031 51.046875 13.171875 L 51.101562 13.136719 L 54.941406 17.613281 L 54.886719 17.667969 C 54.886719 17.683594 54.878906 17.691406 54.863281 17.707031 C 54.851562 17.71875 54.820312 17.734375 54.808594 17.746094 C 54.742188 17.8125 54.609375 17.90625 54.410156 18.066406 C 53.796875 18.546875 48.691406 22.480469 39.257812 29.734375 Z M 56.777344 48.972656 "/>
<path style=" stroke:none;fill-rule:nonzero;fill:rgb(0.784314%,0.784314%,0.784314%);fill-opacity:1;" d="M 5.25 53.503906 L 5.183594 53.503906 L 5.183594 56.453125 L 62.097656 56.230469 L 62.164062 56.230469 L 62.164062 52.761719 Z M 62.011719 56.078125 L 5.316406 56.308594 L 5.316406 53.640625 L 62.011719 52.878906 Z M 62.011719 56.078125 "/>
<path style=" stroke:none;fill-rule:nonzero;fill:rgb(0%,0%,0%);fill-opacity:1;" d="M 13.269531 61.503906 L 13.53125 61.214844 C 13.796875 61.46875 14.171875 61.625 14.570312 61.625 C 15.046875 61.625 15.328125 61.402344 15.328125 61.09375 C 15.328125 60.734375 15.046875 60.625 14.699219 60.480469 L 14.195312 60.265625 C 13.855469 60.136719 13.4375 59.894531 13.4375 59.402344 C 13.4375 58.878906 13.917969 58.503906 14.597656 58.503906 C 15.035156 58.503906 15.421875 58.683594 15.6875 58.921875 L 15.449219 59.199219 C 15.21875 59 14.941406 58.878906 14.582031 58.878906 C 14.171875 58.878906 13.90625 59.066406 13.90625 59.375 C 13.90625 59.691406 14.238281 59.8125 14.53125 59.933594 L 15.023438 60.144531 C 15.460938 60.308594 15.808594 60.546875 15.808594 61.050781 C 15.808594 61.589844 15.328125 62.015625 14.554688 62.015625 C 14.035156 62 13.585938 61.8125 13.269531 61.503906 Z M 13.269531 61.503906 "/>
<path style=" stroke:none;fill-rule:nonzero;fill:rgb(0%,0%,0%);fill-opacity:1;" d="M 18.59375 58.933594 L 17.425781 58.933594 L 17.425781 58.574219 L 20.207031 58.574219 L 20.207031 58.933594 L 19.035156 58.933594 L 19.035156 61.949219 L 18.585938 61.949219 L 18.585938 58.933594 Z M 18.59375 58.933594 "/>
<path style=" stroke:none;fill-rule:nonzero;fill:rgb(0%,0%,0%);fill-opacity:1;" d="M 21.761719 60.238281 C 21.761719 59.144531 22.320312 58.503906 23.117188 58.503906 C 23.914062 58.503906 24.472656 59.144531 24.472656 60.238281 C 24.472656 61.347656 23.914062 62.015625 23.117188 62.015625 C 22.320312 62 21.761719 61.347656 21.761719 60.238281 Z M 23.996094 60.238281 C 23.996094 59.386719 23.636719 58.878906 23.101562 58.878906 C 22.574219 58.878906 22.214844 59.386719 22.214844 60.238281 C 22.214844 61.105469 22.574219 61.625 23.101562 61.625 C 23.648438 61.625 23.996094 61.105469 23.996094 60.238281 Z M 23.996094 60.238281 "/>
<path style=" stroke:none;fill-rule:nonzero;fill:rgb(0%,0%,0%);fill-opacity:1;" d="M 26.058594 60.238281 C 26.058594 59.144531 26.613281 58.503906 27.414062 58.503906 C 28.207031 58.503906 28.769531 59.144531 28.769531 60.238281 C 28.769531 61.347656 28.207031 62.015625 27.414062 62.015625 C 26.613281 62 26.058594 61.347656 26.058594 60.238281 Z M 28.289062 60.238281 C 28.289062 59.386719 27.933594 58.878906 27.398438 58.878906 C 26.867188 58.878906 26.507812 59.386719 26.507812 60.238281 C 26.507812 61.105469 26.867188 61.625 27.398438 61.625 C 27.941406 61.625 28.289062 61.105469 28.289062 60.238281 Z M 28.289062 60.238281 "/>
<path style=" stroke:none;fill-rule:nonzero;fill:rgb(0%,0%,0%);fill-opacity:1;" d="M 30.644531 58.5625 L 31.707031 58.5625 C 32.492188 58.5625 33.003906 58.8125 33.003906 59.5625 C 33.003906 60.28125 32.476562 60.597656 31.707031 60.597656 L 31.09375 60.597656 L 31.09375 61.933594 L 30.644531 61.933594 Z M 31.648438 60.253906 C 32.261719 60.253906 32.554688 60.042969 32.554688 59.5625 C 32.554688 59.078125 32.253906 58.921875 31.648438 58.921875 L 31.09375 58.921875 L 31.09375 60.253906 Z M 31.648438 60.253906 "/>
<path style=" stroke:none;fill-rule:nonzero;fill:rgb(0%,0%,0%);fill-opacity:1;" d="M 35.773438 60.734375 L 34.589844 58.5625 L 35.066406 58.5625 L 35.601562 59.5625 C 35.730469 59.828125 35.851562 60.078125 35.996094 60.347656 L 36.027344 60.347656 C 36.15625 60.078125 36.304688 59.828125 36.4375 59.5625 L 36.941406 58.5625 L 37.410156 58.5625 L 36.226562 60.734375 L 36.226562 61.933594 L 35.773438 61.933594 Z M 35.773438 60.734375 "/>
<path style=" stroke:none;fill-rule:nonzero;fill:rgb(0%,0%,0%);fill-opacity:1;" d="M 43.496094 58.5625 L 43.945312 58.5625 L 43.945312 60.253906 L 43.960938 60.253906 L 45.4375 58.5625 L 45.957031 58.5625 L 43.945312 60.863281 L 43.945312 61.949219 L 43.496094 61.949219 Z M 44.492188 60.050781 L 44.773438 59.71875 L 46.089844 61.949219 L 45.582031 61.949219 Z M 44.492188 60.050781 "/>
<path style=" stroke:none;fill-rule:nonzero;fill:rgb(0%,0%,0%);fill-opacity:1;" d="M 47.777344 61.574219 L 48.65625 61.574219 L 48.65625 58.933594 L 47.777344 58.933594 L 47.777344 58.574219 L 49.984375 58.574219 L 49.984375 58.933594 L 49.109375 58.933594 L 49.109375 61.589844 L 49.984375 61.589844 L 49.984375 61.949219 L 47.777344 61.949219 Z M 47.777344 61.574219 "/>
<path style=" stroke:none;fill-rule:nonzero;fill:rgb(0%,0%,0%);fill-opacity:1;" d="M 52.03125 58.5625 L 52.894531 58.5625 C 53.957031 58.5625 54.53125 59.160156 54.53125 60.238281 C 54.53125 61.316406 53.957031 61.949219 52.921875 61.949219 L 52.03125 61.949219 Z M 52.867188 61.589844 C 53.667969 61.589844 54.066406 61.09375 54.066406 60.238281 C 54.066406 59.386719 53.667969 58.921875 52.867188 58.921875 L 52.484375 58.921875 L 52.484375 61.589844 Z M 52.867188 61.589844 "/>
</g>
</svg>
