<?xml version="1.0" encoding="utf-8"?>
<!-- Generator: Adobe Illustrator 24.3.0, SVG Export Plug-In . SVG Version: 6.00 Build 0)  -->
<svg version="1.1" id="Layer_1" xmlns="http://www.w3.org/2000/svg" xmlns:xlink="http://www.w3.org/1999/xlink" x="0px" y="0px"
	 viewBox="0 0 640 480" style="enable-background:new 0 0 640 480;" xml:space="preserve">
<style type="text/css">
	.st0{fill:none;stroke:#000000;stroke-miterlimit:10;}
	.st1{fill:#020202;}
</style>
<path class="st0" d="M586.05,152.34"/>
<g>
	<path class="st1" d="M309.12,96.17c22.56,0,40.92-16.39,40.92-36.54s-18.36-36.54-40.92-36.54c-22.56,0-40.92,16.39-40.92,36.54
		S286.56,96.17,309.12,96.17z"/>
	<path class="st1" d="M213.71,372.11c0.39,0,0.78,0,1.17,0c36.75,0,69.09-13.53,86.69-36.3c12.07-15.63,18.66-36.91,18.08-58.39
		c-0.59-21.94-8.8-41.35-22.5-53.25c-14.83-12.87-34.72-16.48-45.25-17.49c-23.77-2.28-42.57,5.46-51.66,10.27l-0.17,0.05
		c-1,0.1-3.05-0.21-3.7-2.15c-5.88-17.57,6.06-40.26,34.51-65.62c19.72-17.58,41.18-30.91,44.62-33.01l-29.42-37.45
		c-26.95,19.5-49.22,42.44-66.19,68.21c-4.27,6.49-41.28,63.79-25.72,78.19c3.73,3.45,10.51,3.1,24.02,2.4
		c12.03-0.62,19.29-2.57,26.98-4.64c6.49-1.74,13.2-3.54,23-4.47c13.39-1.26,23.07-2.17,33.54,1.85
		c23.2,8.9,31.55,35.21,32.98,40.39c6.29,22.69-0.36,51.78-16.95,74.12c-12.03,16.2-27.13,25.46-41.49,25.46c-0.12,0-0.24,0-0.36,0
		c-17.49-0.19-37.35-14.08-47.21-33.04c-4.33-8.33-6.08-21.67-6.41-24.55l-58.69,10.76c0.04,0.4,0.09,0.8,0.14,1.2
		c1.23,10.06,4.58,18.82,9.98,26.03C147.81,359.5,179.21,371.84,213.71,372.11z"/>
	<path class="st1" d="M314.24,246.8l2.72-4.45l-0.02-0.01c0.05-0.07,0.1-0.13,0.15-0.2l0.01-0.01l0,0
		c6.09-8.29,12.62-12.78,19.41-13.34c0.5-0.04,1.01-0.06,1.51-0.06c29.69,0,59.74,71.25,79.99,132.14
		c1.61-0.35,10.62-1.9,63.66-10.63l-117.27-134l0.35-0.33l-0.29-0.38c63.62-50.92,97.96-78.44,102.05-81.82
		c0.01-0.01,0.02-0.01,0.03-0.02l-0.06-0.07c1-0.8,2.01-1.6,3.02-2.4l-24.71-29.99c-17.19,12.39-34.76,24.86-51.75,36.93
		c-34.24,24.3-69.64,49.43-103.66,75.12c-1.61,1.21-2.5,1.95-2.99,2.39c3.94,2.13,7.78,4.68,11.35,7.77
		C304.76,229.51,310.34,237.51,314.24,246.8z"/>
	<polygon class="st1" points="138.01,401.62 518.25,400.04 518.25,377.73 138.01,383.01 	"/>
	<path class="st1" d="M309.12,97.14c23.08,0,41.87-16.83,41.87-37.52S332.21,22.1,309.12,22.1c-23.09,0-41.87,16.83-41.87,37.52
		S286.04,97.14,309.12,97.14z M309.12,23.08c22.56,0,40.92,16.39,40.92,36.54s-18.36,36.54-40.92,36.54
		c-22.56,0-40.92-16.39-40.92-36.54S286.56,23.08,309.12,23.08z"/>
	<path class="st1" d="M483.06,350.36l-0.35,0.32v0.49h-0.75c-20.8,3.43-59.82,9.87-63.59,10.58c0.01,0.11,0.03,0.25,0.06,0.37
		l-0.92,0.26c-16.77-50.64-49.6-135.2-80.92-132.63c-6.51,0.54-12.81,4.9-18.72,12.94l-3.19,5.22c3.56,8.89,5.63,18.89,5.91,29.49
		c0.59,21.7-6.07,43.21-18.28,59.02c-17.77,23.01-50.4,36.67-87.43,36.67h-1.18c-34.78-0.28-66.47-12.76-80.73-31.82
		c-5.5-7.35-8.93-16.27-10.17-26.5c-0.07-0.55-0.13-1.11-0.19-1.67l-0.04-0.45l60.59-11.11l0.02,0.56c0,0.14,1.57,15.49,6.35,24.68
		c9.55,18.36,29.49,32.34,46.38,32.52c14.2,0.16,29.15-8.98,41.09-25.07c16.41-22.1,23-50.85,16.79-73.26
		c-1.42-5.1-9.63-31-32.41-39.74c-10.27-3.95-19.86-3.04-33.12-1.8c-9.73,0.92-16.4,2.71-22.85,4.44
		c-7.4,1.99-15.04,4.04-27.17,4.67c-13.77,0.71-20.68,1.07-24.7-2.65c-16.16-14.95,21.25-72.9,25.56-79.46
		c17.11-25.98,39.58-49.1,66.79-68.72l0.37-0.26l30.66,39.04l-0.48,0.28c-0.93,0.56-93.1,56.17-79.19,97.77
		c0.51,1.52,2.23,1.52,2.63,1.5c9.22-4.86,28.17-12.62,52.1-10.33c7.93,0.76,21.11,2.99,33.53,9.47c0.45-0.43,1.4-1.24,3.32-2.69
		c34.03-25.7,69.44-50.83,103.68-75.14c17.11-12.15,34.8-24.71,52.11-37.18l0.35-0.26l25.79,31.3l-0.4,0.35
		c-0.03,0.08-0.08,0.18-0.21,0.32l0.03,0.04c-0.12,0.09-0.25,0.19-0.37,0.28c-0.47,0.44-1.3,1.12-2.7,2.27
		c-4.09,3.37-38.3,30.8-101.66,81.51L483.06,350.36z"/>
	<path class="st1" d="M137.53,382.04l-0.47,0.01v20.55l381.66-1.59l0.47,0v-24.27L137.53,382.04z M518.25,400.04l-380.24,1.58
		v-18.61l380.24-5.28V400.04z"/>
</g>
<g>
	<path d="M191.34,437.94l1.8-2.09c1.8,1.76,4.25,2.92,6.91,2.92c3.24,0,5.11-1.55,5.11-3.71c0-2.52-1.84-3.24-4.21-4.25l-3.42-1.51
		c-2.34-0.94-5.08-2.59-5.08-6.08c0-3.6,3.24-6.26,7.74-6.26c2.95,0,5.54,1.19,7.27,2.92l-1.58,1.94c-1.55-1.37-3.35-2.2-5.8-2.2
		c-2.74,0-4.57,1.29-4.57,3.42c0,2.27,2.2,3.1,4.21,3.89l3.31,1.48c2.92,1.15,5.22,2.81,5.22,6.3c0,3.74-3.17,6.73-8.35,6.73
		C196.45,441.43,193.47,440.06,191.34,437.94z"/>
	<path d="M227.02,419.94h-7.81v-2.56h18.65v2.56h-7.81V441h-3.02V419.94z"/>
	<path d="M248.26,429.08c0-7.63,3.74-12.13,9.07-12.13c5.33,0,9.07,4.5,9.07,12.13c0,7.74-3.74,12.35-9.07,12.35
		C252,441.43,248.26,436.82,248.26,429.08z M263.27,429.08c0-5.94-2.38-9.47-5.94-9.47c-3.56,0-5.94,3.53-5.94,9.47
		c0,6.05,2.38,9.68,5.94,9.68C260.89,438.77,263.27,435.13,263.27,429.08z"/>
	<path d="M277.06,429.08c0-7.63,3.74-12.13,9.07-12.13c5.33,0,9.07,4.5,9.07,12.13c0,7.74-3.74,12.35-9.07,12.35
		C280.8,441.43,277.06,436.82,277.06,429.08z M292.07,429.08c0-5.94-2.38-9.47-5.94-9.47c-3.56,0-5.94,3.53-5.94,9.47
		c0,6.05,2.38,9.68,5.94,9.68C289.69,438.77,292.07,435.13,292.07,429.08z"/>
	<path d="M307.8,417.39h7.13c5.22,0,8.75,1.76,8.75,6.95c0,5-3.56,7.31-8.75,7.31h-4.1V441h-3.02V417.39z M314.57,429.19
		c4.1,0,6.08-1.51,6.08-4.86c0-3.38-2.02-4.5-6.08-4.5h-3.74v9.36H314.57z"/>
	<path d="M342.22,432.58l-7.92-15.19h3.2l3.53,6.98c0.9,1.84,1.73,3.64,2.7,5.51h0.14c0.94-1.87,1.87-3.67,2.77-5.51l3.42-6.98h3.1
		l-7.92,15.19V441h-3.02V432.58z"/>
	<path d="M394.02,417.39h3.06v11.81h0.11l9.9-11.81h3.46l-13.46,16.09V441h-3.06V417.39z M400.71,427.82l1.84-2.38L411.4,441h-3.42
		L400.71,427.82z"/>
	<path d="M422.75,438.44h5.87v-18.5h-5.87v-2.56h14.76v2.56h-5.87v18.5h5.87V441h-14.76V438.44z"/>
	<path d="M451.26,417.39h5.83c7.09,0,10.94,4.21,10.94,11.7c0,7.52-3.85,11.91-10.8,11.91h-5.97V417.39z M456.87,438.51
		c5.36,0,8.03-3.46,8.03-9.43c0-5.94-2.66-9.21-8.03-9.21h-2.59v18.65H456.87z"/>
</g>
</svg>
