<?xml version="1.0" encoding="UTF-8"?>
<svg xmlns="http://www.w3.org/2000/svg" xmlns:xlink="http://www.w3.org/1999/xlink" width="120pt" height="95pt" viewBox="0 0 120 95" version="1.1">
<g id="surface1">
<path style=" stroke:none;fill-rule:nonzero;fill:rgb(90.196078%,90.196078%,90.196078%);fill-opacity:1;" d="M 56.480469 19.925781 C 60.59375 19.925781 63.953125 16.800781 63.953125 12.945312 C 63.953125 9.0625 60.59375 5.929688 56.480469 5.929688 C 52.339844 5.929688 48.988281 9.0625 48.988281 12.945312 C 48.988281 16.800781 52.339844 19.925781 56.480469 19.925781 Z M 56.480469 19.925781 "/>
<path style=" stroke:none;fill-rule:nonzero;fill:rgb(90.196078%,90.196078%,90.196078%);fill-opacity:1;" d="M 39.027344 72.863281 C 39.078125 72.863281 39.152344 72.863281 39.226562 72.863281 C 45.964844 72.863281 51.855469 70.269531 55.085938 65.902344 C 57.296875 62.898438 58.488281 58.816406 58.386719 54.703125 C 58.289062 50.492188 56.785156 46.769531 54.273438 44.480469 C 51.574219 42.019531 47.921875 41.320312 46.015625 41.144531 C 41.644531 40.707031 38.210938 42.175781 36.558594 43.097656 L 36.507812 43.121094 C 36.335938 43.121094 35.953125 43.070312 35.847656 42.714844 C 34.757812 39.320312 36.945312 34.976562 42.148438 30.125 C 45.757812 26.734375 49.699219 24.195312 50.308594 23.78125 L 44.949219 16.617188 C 40.019531 20.339844 35.929688 24.734375 32.824219 29.6875 C 32.039062 30.921875 25.28125 41.917969 28.125 44.6875 C 28.8125 45.332031 30.058594 45.277344 32.519531 45.152344 C 34.707031 45.019531 36.054688 44.636719 37.449219 44.253906 C 38.648438 43.917969 39.863281 43.585938 41.671875 43.402344 C 44.105469 43.144531 45.882812 42.96875 47.792969 43.742188 C 52.035156 45.460938 53.558594 50.492188 53.835938 51.496094 C 54.984375 55.832031 53.761719 61.4375 50.738281 65.699219 C 48.527344 68.804688 45.757812 70.578125 43.140625 70.578125 C 43.117188 70.578125 43.089844 70.578125 43.066406 70.578125 C 39.863281 70.550781 36.226562 67.882812 34.425781 64.257812 C 33.640625 62.664062 33.335938 60.097656 33.261719 59.53125 L 22.535156 61.613281 C 22.535156 61.695312 22.535156 61.769531 22.566406 61.84375 C 22.765625 63.769531 23.398438 65.441406 24.367188 66.828125 C 26.960938 70.453125 32.699219 72.816406 39.027344 72.863281 Z M 39.027344 72.863281 "/>
<path style=" stroke:none;fill-rule:nonzero;fill:rgb(90.196078%,90.196078%,90.196078%);fill-opacity:1;" d="M 57.398438 48.824219 L 57.902344 47.980469 C 57.902344 47.953125 57.925781 47.953125 57.925781 47.921875 C 59.046875 46.332031 60.238281 45.484375 61.484375 45.382812 C 61.5625 45.359375 61.667969 45.359375 61.765625 45.359375 C 67.175781 45.359375 72.695312 59.019531 76.402344 70.707031 C 76.683594 70.625 78.335938 70.34375 88.039062 68.675781 L 66.589844 42.96875 L 66.648438 42.914062 L 66.589844 42.839844 C 78.230469 33.054688 84.507812 27.789062 85.265625 27.148438 L 85.242188 27.125 C 85.445312 26.96875 85.621094 26.816406 85.800781 26.660156 L 81.277344 20.90625 C 78.152344 23.292969 74.925781 25.683594 71.828125 27.996094 C 65.550781 32.644531 59.074219 37.472656 52.847656 42.40625 C 52.566406 42.632812 52.390625 42.761719 52.316406 42.863281 C 53.027344 43.277344 53.738281 43.765625 54.398438 44.355469 C 55.671875 45.507812 56.6875 47.050781 57.398438 48.824219 Z M 57.398438 48.824219 "/>
<path style=" stroke:none;fill-rule:nonzero;fill:rgb(90.196078%,90.196078%,90.196078%);fill-opacity:1;" d="M 25.175781 78.511719 L 94.722656 78.207031 L 94.722656 73.941406 L 25.175781 74.945312 Z M 25.175781 78.511719 "/>
<path style=" stroke:none;fill-rule:nonzero;fill:rgb(90.196078%,90.196078%,90.196078%);fill-opacity:1;" d="M 56.480469 20.132812 C 60.699219 20.132812 64.128906 16.898438 64.128906 12.945312 C 64.128906 8.964844 60.699219 5.730469 56.480469 5.730469 C 52.234375 5.730469 48.808594 8.964844 48.808594 12.945312 C 48.808594 16.898438 52.234375 20.132812 56.480469 20.132812 Z M 56.480469 5.929688 C 60.59375 5.929688 63.953125 9.0625 63.953125 12.945312 C 63.953125 16.800781 60.59375 19.925781 56.480469 19.925781 C 52.339844 19.925781 48.988281 16.800781 48.988281 12.945312 C 48.988281 9.0625 52.339844 5.929688 56.480469 5.929688 Z M 56.480469 5.929688 "/>
<path style=" stroke:none;fill-rule:nonzero;fill:rgb(90.196078%,90.196078%,90.196078%);fill-opacity:1;" d="M 88.289062 68.675781 L 88.214844 68.753906 L 88.214844 68.835938 L 88.089844 68.835938 C 84.273438 69.5 77.136719 70.734375 76.453125 70.859375 C 76.453125 70.882812 76.453125 70.910156 76.476562 70.941406 L 76.296875 70.992188 C 73.222656 61.28125 67.226562 45.078125 61.484375 45.558594 C 60.296875 45.664062 59.148438 46.488281 58.082031 48.027344 L 57.496094 49.03125 C 58.132812 50.75 58.511719 52.648438 58.5625 54.703125 C 58.667969 58.867188 57.445312 62.972656 55.234375 66.007812 C 51.988281 70.425781 46.015625 73.039062 39.226562 73.039062 L 39.027344 73.039062 C 32.652344 72.988281 26.851562 70.601562 24.242188 66.953125 C 23.25 65.542969 22.613281 63.824219 22.382812 61.871094 C 22.382812 61.769531 22.359375 61.636719 22.359375 61.539062 L 22.335938 61.460938 L 33.4375 59.332031 L 33.4375 59.429688 C 33.4375 59.457031 33.714844 62.410156 34.609375 64.15625 C 36.335938 67.675781 39.992188 70.371094 43.066406 70.394531 C 45.683594 70.425781 48.402344 68.675781 50.582031 65.59375 C 53.582031 61.355469 54.804688 55.832031 53.664062 51.546875 C 53.40625 50.566406 51.90625 45.589844 47.742188 43.917969 C 45.859375 43.171875 44.105469 43.351562 41.671875 43.585938 C 39.886719 43.765625 38.671875 44.097656 37.5 44.429688 C 36.152344 44.820312 34.757812 45.203125 32.519531 45.332031 C 30.007812 45.460938 28.734375 45.535156 28 44.820312 C 25.050781 41.941406 31.882812 30.847656 32.675781 29.585938 C 35.824219 24.605469 39.917969 20.160156 44.894531 16.410156 L 44.972656 16.359375 L 50.582031 23.832031 L 50.484375 23.882812 C 50.335938 23.988281 33.460938 34.671875 36.003906 42.632812 C 36.105469 42.945312 36.410156 42.945312 36.484375 42.914062 C 38.160156 41.992188 41.644531 40.5 46.015625 40.9375 C 47.460938 41.097656 49.875 41.527344 52.160156 42.761719 C 52.234375 42.6875 52.417969 42.53125 52.746094 42.25 C 58.972656 37.316406 65.449219 32.488281 71.726562 27.839844 C 74.851562 25.507812 78.105469 23.085938 81.253906 20.699219 L 81.332031 20.648438 L 86.03125 26.660156 L 85.953125 26.734375 C 85.953125 26.734375 85.953125 26.761719 85.925781 26.785156 C 85.902344 26.816406 85.878906 26.839844 85.878906 26.839844 C 85.777344 26.941406 85.621094 27.066406 85.371094 27.273438 C 84.628906 27.945312 78.359375 33.183594 66.773438 42.914062 Z M 88.289062 68.675781 "/>
<path style=" stroke:none;fill-rule:nonzero;fill:rgb(90.196078%,90.196078%,90.196078%);fill-opacity:1;" d="M 25.078125 74.765625 L 25.003906 74.765625 L 25.003906 78.695312 L 94.820312 78.414062 L 94.898438 78.414062 L 94.898438 73.734375 Z M 94.722656 78.207031 L 25.175781 78.511719 L 25.175781 74.945312 L 94.722656 73.941406 Z M 94.722656 78.207031 "/>
<path style=" stroke:none;fill-rule:nonzero;fill:rgb(90.196078%,90.196078%,90.196078%);fill-opacity:1;" d="M 34.707031 85.675781 L 35.039062 85.269531 C 35.367188 85.601562 35.796875 85.835938 36.308594 85.835938 C 36.890625 85.835938 37.21875 85.527344 37.21875 85.113281 C 37.21875 84.625 36.890625 84.5 36.460938 84.292969 L 35.824219 84.011719 C 35.417969 83.828125 34.914062 83.519531 34.914062 82.855469 C 34.914062 82.160156 35.492188 81.648438 36.335938 81.648438 C 36.863281 81.648438 37.324219 81.878906 37.65625 82.210938 L 37.375 82.574219 C 37.070312 82.316406 36.738281 82.160156 36.308594 82.160156 C 35.796875 82.160156 35.46875 82.417969 35.46875 82.800781 C 35.46875 83.238281 35.875 83.421875 36.226562 83.546875 L 36.839844 83.851562 C 37.375 84.058594 37.804688 84.367188 37.804688 85.0625 C 37.804688 85.757812 37.21875 86.347656 36.257812 86.347656 C 35.648438 86.347656 35.085938 86.066406 34.707031 85.675781 Z M 34.707031 85.675781 "/>
<path style=" stroke:none;fill-rule:nonzero;fill:rgb(90.196078%,90.196078%,90.196078%);fill-opacity:1;" d="M 41.234375 82.210938 L 39.8125 82.210938 L 39.8125 81.722656 L 43.214844 81.722656 L 43.214844 82.210938 L 41.792969 82.210938 L 41.792969 86.273438 L 41.234375 86.273438 Z M 41.234375 82.210938 "/>
<path style=" stroke:none;fill-rule:nonzero;fill:rgb(90.196078%,90.196078%,90.196078%);fill-opacity:1;" d="M 45.125 83.984375 C 45.125 82.519531 45.808594 81.648438 46.773438 81.648438 C 47.742188 81.648438 48.425781 82.519531 48.425781 83.984375 C 48.425781 85.445312 47.742188 86.347656 46.773438 86.347656 C 45.808594 86.347656 45.125 85.445312 45.125 83.984375 Z M 47.867188 83.984375 C 47.867188 82.832031 47.4375 82.160156 46.773438 82.160156 C 46.113281 82.160156 45.683594 82.832031 45.683594 83.984375 C 45.683594 85.136719 46.113281 85.835938 46.773438 85.835938 C 47.4375 85.835938 47.867188 85.136719 47.867188 83.984375 Z M 47.867188 83.984375 "/>
<path style=" stroke:none;fill-rule:nonzero;fill:rgb(90.196078%,90.196078%,90.196078%);fill-opacity:1;" d="M 50.382812 83.984375 C 50.382812 82.519531 51.070312 81.648438 52.035156 81.648438 C 53.027344 81.648438 53.714844 82.519531 53.714844 83.984375 C 53.714844 85.445312 53.027344 86.347656 52.035156 86.347656 C 51.070312 86.347656 50.382812 85.445312 50.382812 83.984375 Z M 53.128906 83.984375 C 53.128906 82.832031 52.695312 82.160156 52.035156 82.160156 C 51.402344 82.160156 50.96875 82.832031 50.96875 83.984375 C 50.96875 85.136719 51.402344 85.835938 52.035156 85.835938 C 52.695312 85.835938 53.128906 85.136719 53.128906 83.984375 Z M 53.128906 83.984375 "/>
<path style=" stroke:none;fill-rule:nonzero;fill:rgb(90.196078%,90.196078%,90.196078%);fill-opacity:1;" d="M 56 81.722656 L 57.320312 81.722656 C 58.257812 81.722656 58.917969 82.0625 58.917969 83.058594 C 58.917969 84.011719 58.257812 84.472656 57.320312 84.472656 L 56.554688 84.472656 L 56.554688 86.273438 L 56 86.273438 Z M 57.242188 83.984375 C 58.007812 83.984375 58.363281 83.703125 58.363281 83.058594 C 58.363281 82.417969 57.984375 82.1875 57.242188 82.1875 L 56.554688 82.1875 L 56.554688 83.984375 Z M 57.242188 83.984375 "/>
<path style=" stroke:none;fill-rule:nonzero;fill:rgb(90.196078%,90.196078%,90.196078%);fill-opacity:1;" d="M 62.300781 84.648438 L 60.851562 81.722656 L 61.4375 81.722656 L 62.097656 83.058594 C 62.246094 83.421875 62.402344 83.753906 62.578125 84.109375 L 62.601562 84.109375 C 62.78125 83.753906 62.964844 83.421875 63.113281 83.058594 L 63.75 81.722656 L 64.308594 81.722656 L 62.855469 84.648438 L 62.855469 86.242188 L 62.300781 86.242188 Z M 62.300781 84.648438 "/>
<path style=" stroke:none;fill-rule:nonzero;fill:rgb(90.196078%,90.196078%,90.196078%);fill-opacity:1;" d="M 71.777344 81.722656 L 72.339844 81.722656 L 72.339844 83.984375 L 72.363281 83.984375 L 74.164062 81.722656 L 74.800781 81.722656 L 72.339844 84.804688 L 72.339844 86.242188 L 71.777344 86.242188 Z M 73 83.726562 L 73.355469 83.265625 L 74.949219 86.242188 L 74.34375 86.242188 Z M 73 83.726562 "/>
<path style=" stroke:none;fill-rule:nonzero;fill:rgb(90.196078%,90.196078%,90.196078%);fill-opacity:1;" d="M 77.039062 85.757812 L 78.105469 85.757812 L 78.105469 82.210938 L 77.039062 82.210938 L 77.039062 81.722656 L 79.730469 81.722656 L 79.730469 82.210938 L 78.664062 82.210938 L 78.664062 85.757812 L 79.730469 85.757812 L 79.730469 86.273438 L 77.039062 86.273438 Z M 77.039062 85.757812 "/>
<path style=" stroke:none;fill-rule:nonzero;fill:rgb(90.196078%,90.196078%,90.196078%);fill-opacity:1;" d="M 82.242188 81.722656 L 83.308594 81.722656 C 84.605469 81.722656 85.324219 82.542969 85.324219 83.984375 C 85.324219 85.421875 84.605469 86.242188 83.339844 86.242188 L 82.242188 86.242188 Z M 83.285156 85.785156 C 84.25 85.785156 84.738281 85.113281 84.738281 83.984375 C 84.738281 82.832031 84.25 82.210938 83.285156 82.210938 L 82.804688 82.210938 L 82.804688 85.785156 Z M 83.285156 85.785156 "/>
</g>
</svg>
